<?xml version="1.0" standalone="no"?>
<!DOCTYPE svg PUBLIC "-//W3C//DTD SVG 20010904//EN"
 "http://www.w3.org/TR/2001/REC-SVG-20010904/DTD/svg10.dtd">
<svg version="1.0" xmlns="http://www.w3.org/2000/svg"
 width="400.000000pt" height="400.000000pt" viewBox="0 0 400.000000 400.000000"
 preserveAspectRatio="xMidYMid meet">

    <g transform="translate(0.000000,400.000000) scale(0.100000,-0.100000)"
     fill="#9a9a9a" stroke="#9a9a9a">
        <path d="M500 2000 l0 -1000 1125 0 1125 0 0 375 0 375 125 0 125 0 0 -125 0
        -125 125 0 125 0 0 -125 0 -125 125 0 125 0 0 750 0 750 -125 0 -125 0 0 -125
        0 -125 -125 0 -125 0 0 -125 0 -125 -125 0 -125 0 0 375 0 375 -1125 0 -1125
        0 0 -1000z m1750 625 l0 -125 125 0 125 0 0 -500 0 -500 -125 0 -125 0 0 -125
        0 -125 -750 0 -750 0 0 750 0 750 750 0 750 0 0 -125z"/>
        <path d="M1000 2250 l0 -250 375 0 375 0 0 250 0 250 -375 0 -375 0 0 -250z"/>
    </g>
</svg>
