<?xml version="1.0" standalone="no"?>
<!DOCTYPE svg PUBLIC "-//W3C//DTD SVG 20010904//EN"
 "http://www.w3.org/TR/2001/REC-SVG-20010904/DTD/svg10.dtd">
<svg version="1.0" xmlns="http://www.w3.org/2000/svg"
 width="200.000000pt" height="200.000000pt" viewBox="0 0 200.000000 200.000000"
 preserveAspectRatio="xMidYMid meet">

<g transform="translate(0.000000,200.000000) scale(0.100000,-0.100000)"
fill="#9a9a9a" stroke="#9a9a9a" stroke-width="5">
<path d="M400 1590 c-25 -25 -23 -12 -20 -207 2 -138 -1 -170 -18 -225 -11
-34 -25 -82 -31 -106 -8 -28 -17 -42 -25 -39 -7 3 -47 11 -89 18 -61 10 -80
10 -89 1 -24 -24 5 -46 85 -62 41 -8 78 -17 80 -20 2 -3 7 -39 11 -81 l7 -76
-73 -13 c-91 -16 -118 -26 -118 -44 0 -32 24 -35 119 -15 52 10 95 18 96 17
95 -162 216 -255 410 -314 82 -25 105 -28 250 -28 138 -1 171 2 240 22 203 58
334 155 430 320 1 1 44 -7 96 -17 95 -20 119 -17 119 15 0 18 -27 28 -117 44
l-72 13 4 81 4 81 82 15 c86 16 116 37 91 62 -9 9 -28 9 -89 -1 -42 -7 -82
-15 -89 -18 -8 -3 -17 11 -24 39 -7 24 -21 69 -32 101 -17 51 -20 82 -18 220
3 204 4 193 -20 217 -28 28 -54 26 -221 -25 l-149 -46 -81 16 c-45 8 -112 15
-149 15 -37 0 -104 -7 -149 -15 l-81 -16 -149 46 c-167 51 -193 53 -221 25z
m213 -86 l152 -46 85 16 c108 20 192 20 300 0 l85 -16 153 46 c85 26 158 46
164 44 7 -3 11 -69 12 -183 1 -167 3 -187 29 -269 31 -101 31 -101 -44 -111
-58 -8 -85 -26 -75 -50 7 -18 43 -18 135 1 l34 7 -6 -62 c-3 -35 -7 -65 -10
-67 -2 -3 -34 1 -71 7 -51 10 -69 10 -78 1 -9 -9 -15 -4 -25 21 -28 66 -87
147 -108 147 -34 0 -124 -154 -125 -213 -1 -122 181 -164 234 -53 9 19 16 39
16 46 0 7 6 10 14 7 8 -3 32 -9 53 -12 64 -11 65 -12 52 -37 -43 -84 -163
-178 -285 -224 -257 -97 -572 -60 -768 88 -66 50 -144 144 -130 157 3 3 28 11
56 16 55 11 81 36 61 56 -10 10 -27 10 -79 0 -37 -6 -69 -10 -71 -7 -3 2 -7
32 -10 67 l-6 62 34 -7 c92 -19 128 -19 135 -1 10 24 -17 42 -75 50 -75 10
-75 10 -44 111 26 82 28 104 30 264 1 96 2 178 2 183 2 12 18 9 174 -39z m772
-664 c27 -57 28 -63 14 -88 -33 -59 -126 -31 -116 35 6 36 55 125 66 119 4 -3
20 -32 36 -66z"/>
<path d="M757 1143 c-10 -10 -39 -20 -70 -23 -47 -5 -52 -7 -52 -30 0 -19 6
-26 25 -28 17 -2 30 -14 40 -35 12 -25 22 -33 48 -35 49 -5 75 22 68 68 -4 19
-6 44 -7 55 0 19 -16 45 -28 45 -4 0 -14 -8 -24 -17z"/>
<path d="M1202 1147 c-6 -7 -11 -22 -11 -32 -1 -11 -3 -36 -7 -55 -7 -46 19
-73 68 -68 26 2 36 10 48 35 10 21 23 33 40 35 19 2 25 9 25 28 0 23 -5 25
-52 30 -28 3 -60 13 -70 23 -23 20 -27 21 -41 4z"/>
<path d="M897 934 c-15 -15 -6 -43 28 -87 19 -25 35 -53 35 -61 0 -21 -39 -46
-71 -46 -31 0 -54 -23 -45 -46 10 -25 99 -14 131 16 23 21 25 22 41 5 53 -53
178 -44 134 10 -7 8 -24 15 -39 15 -32 0 -71 25 -71 46 0 8 16 36 35 62 20 26
35 55 33 67 -3 18 -11 20 -104 23 -55 1 -103 0 -107 -4z"/>
</g>
</svg>
